<svg width="58" height="85" viewBox="0 0 58 85" fill="none" xmlns="http://www.w3.org/2000/svg">
<path d="M22.8234 0.0078125C23.7103 0.00523437 24.5972 0.00265625 25.5109 0C26.439 0.00773438 27.3672 0.0154688 28.3234 0.0234375C29.7156 0.0118359 29.7156 0.0118359 31.1359 0C32.4662 0.00386719 32.4662 0.00386719 33.8234 0.0078125C34.6381 0.0100684 35.4528 0.0123242 36.2922 0.0146484C38.3234 0.273438 38.3234 0.273438 40.3234 2.27344C40.5505 4.70361 40.5505 4.70361 40.5187 7.71875C40.5123 8.79512 40.5058 9.87148 40.4992 10.9805C40.4824 12.1084 40.4657 13.2363 40.4484 14.3984C40.4394 15.5341 40.4304 16.6698 40.4211 17.8398C40.3974 20.6513 40.3645 23.4622 40.3234 26.2734C41.2751 26.4698 41.2751 26.4698 42.246 26.6702C44.3234 27.2734 44.3234 27.2734 45.5617 28.9258C46.862 31.692 48.1172 34.4644 49.3234 37.2734C49.6225 37.9581 49.9215 38.6427 50.2297 39.3481C57.7289 56.7014 57.7289 56.7014 56.3234 65.2734C56.1864 66.2221 56.1864 66.2221 56.0466 67.1899C55.7271 69.3686 55.3771 71.5396 55.0109 73.7109C54.8352 74.7602 54.8352 74.7602 54.6559 75.8306C53.9377 79.581 53.3874 81.9296 50.3234 84.2734C48.3124 84.6544 48.3124 84.6544 45.9914 84.6616C45.1204 84.6711 44.2494 84.6805 43.352 84.6903C42.4144 84.6842 41.4769 84.6781 40.5109 84.6719C39.5456 84.6747 38.5804 84.6776 37.5859 84.6806C35.5449 84.6826 33.504 84.6771 31.4631 84.6646C28.3353 84.6485 25.2089 84.6644 22.0812 84.6836C20.0994 84.6816 18.1177 84.6778 16.1359 84.6719C15.1984 84.6779 14.2608 84.684 13.2948 84.6903C12.4238 84.6808 11.5528 84.6714 10.6554 84.6616C9.88949 84.6592 9.12355 84.6568 8.33439 84.6544C5.75613 84.166 4.90051 83.3429 3.32341 81.2734C2.61832 78.7171 2.07856 76.3112 1.63591 73.7109C1.50635 73.0451 1.3768 72.3793 1.24333 71.6934C0.858341 69.5566 0.569877 67.4305 0.323406 65.2734C0.23446 64.5259 0.145515 63.7784 0.0538744 63.0083C-0.443074 55.0163 2.58103 48.498 5.69841 41.2734C6.21293 40.0358 6.72597 38.7975 7.23747 37.5586C11.0007 28.5961 11.0007 28.5961 13.3234 26.2734C14.3134 26.2734 15.3034 26.2734 16.3234 26.2734C16.3129 25.5569 16.3025 24.8403 16.2917 24.1021C16.2502 20.8675 16.2241 17.6331 16.1984 14.3984C16.1816 13.2705 16.1649 12.1426 16.1476 10.9805C16.1412 9.9041 16.1347 8.82773 16.1281 7.71875C16.1176 6.72375 16.1071 5.72876 16.0964 4.70361C16.5189 0.181331 18.856 0.0187981 22.8234 0.0078125ZM20.3234 6.27344C20.0463 8.40596 20.0463 8.40596 20.1281 10.8438C20.1345 11.7396 20.141 12.6355 20.1476 13.5586C20.1644 14.4957 20.1811 15.4329 20.1984 16.3984C20.2074 17.3433 20.2165 18.2882 20.2257 19.2617C20.2494 21.5991 20.2852 23.9363 20.3234 26.2734C25.6034 26.2734 30.8834 26.2734 36.3234 26.2734C36.3772 22.9816 36.417 19.6905 36.4484 16.3984C36.4652 15.4613 36.4819 14.5241 36.4992 13.5586C36.5056 12.6627 36.5121 11.7668 36.5187 10.8438C36.5292 10.0163 36.5397 9.18892 36.5505 8.33643C36.5164 6.04946 36.5164 6.04946 34.3234 4.27344C31.4947 3.95352 31.4947 3.95352 28.3234 4.02344C27.2509 4.01828 26.1784 4.01312 25.0734 4.00781C22.1798 3.99316 22.1798 3.99316 20.3234 6.27344ZM15.3234 31.2734C13.3625 35.1806 11.8244 39.28 10.1984 43.3359C9.73048 44.4568 9.26255 45.5776 8.78044 46.7324C5.02212 56.0625 4.72549 62.4343 6.69841 72.2109C6.82473 72.8819 6.95106 73.5528 7.08122 74.2441C7.42349 75.9367 7.86568 77.6084 8.32341 79.2734C11.4779 80.8507 14.8608 80.4153 18.3234 80.4062C19.1149 80.4072 19.9064 80.4082 20.7218 80.4091C22.3963 80.4098 24.0708 80.408 25.7453 80.4038C28.313 80.3985 30.8806 80.4038 33.4484 80.4102C35.0734 80.4095 36.6984 80.4082 38.3234 80.4062C39.4797 80.4093 39.4797 80.4093 40.6593 80.4124C44.6206 80.4789 44.6206 80.4789 48.3234 79.2734C48.9726 76.885 49.4947 74.5746 49.9484 72.1484C50.0825 71.4962 50.2165 70.8439 50.3547 70.1719C51.7123 63.1899 51.7927 57.5991 49.2062 50.9375C48.7641 49.7915 48.3219 48.6455 47.8664 47.4648C47.3984 46.2879 46.9305 45.111 46.4484 43.8984C45.9882 42.6983 45.528 41.4982 45.0539 40.2617C43.2948 34.3608 43.2948 34.3608 39.3234 30.2734C36.3534 30.2734 33.3834 30.2734 30.3234 30.2734C30.3234 38.8534 30.3234 47.4334 30.3234 56.2734C29.0034 56.2734 27.6834 56.2734 26.3234 56.2734C26.3234 47.6934 26.3234 39.1134 26.3234 30.2734C18.2924 29.6026 18.2924 29.6026 15.3234 31.2734Z" fill="#F5F5F5"/>
</svg>
