<svg width="100" height="100" viewBox="0 0 100 100" fill="none" xmlns="http://www.w3.org/2000/svg">
<path d="M20.2812 7.35304C20.9957 7.34428 21.7102 7.33552 22.4463 7.32649C24.7981 7.30456 27.1481 7.31902 29.5 7.33595C31.14 7.33258 32.7799 7.32772 34.4199 7.32145C37.8531 7.31409 41.2856 7.32477 44.7187 7.34816C49.1141 7.37664 53.5079 7.36024 57.9032 7.33029C61.2885 7.3122 64.6735 7.31799 68.0588 7.33093C69.6791 7.33426 71.2994 7.3302 72.9197 7.31853C75.1869 7.3058 77.4517 7.32524 79.7187 7.35304C81.0072 7.35702 82.2956 7.36099 83.623 7.36509C87.9807 8.1844 89.4322 9.41106 92 13C92.6349 16.377 92.6349 16.377 92.647 20.2813C92.6557 20.9957 92.6645 21.7102 92.6735 22.4463C92.6954 24.7982 92.681 27.1481 92.6641 29.5C92.6674 31.14 92.6723 32.78 92.6786 34.4199C92.6859 37.8531 92.6752 41.2857 92.6518 44.7188C92.6234 49.1141 92.6398 53.5079 92.6697 57.9032C92.6878 61.2885 92.682 64.6735 92.6691 68.0588C92.6657 69.6791 92.6698 71.2994 92.6815 72.9197C92.6942 75.1869 92.6748 77.4517 92.647 79.7188C92.641 81.6514 92.641 81.6514 92.6349 83.6231C91.8156 87.9807 90.5889 89.4322 87 92C83.623 92.6349 83.623 92.6349 79.7187 92.647C79.0043 92.6557 78.2898 92.6645 77.5537 92.6735C75.2018 92.6955 72.8519 92.681 70.5 92.6641C68.86 92.6674 67.22 92.6723 65.5801 92.6786C62.1469 92.6859 58.7144 92.6753 55.2812 92.6519C50.8859 92.6234 46.4921 92.6398 42.0968 92.6697C38.7115 92.6878 35.3265 92.682 31.9412 92.6691C30.3209 92.6658 28.7006 92.6698 27.0803 92.6815C24.8131 92.6942 22.5483 92.6748 20.2812 92.647C18.9928 92.643 17.7044 92.639 16.3769 92.6349C12.0193 91.8156 10.5678 90.589 8 87C7.36508 83.6231 7.36508 83.6231 7.35302 79.7188C7.34426 79.0043 7.3355 78.2898 7.32647 77.5537C7.30454 75.2019 7.31901 72.8519 7.33593 70.5C7.33256 68.86 7.32771 67.2201 7.32144 65.5801C7.31407 62.1469 7.32475 58.7144 7.34814 55.2813C7.37663 50.8859 7.36022 46.4921 7.33028 42.0968C7.31219 38.7115 7.31797 35.3265 7.33092 31.9412C7.33425 30.3209 7.33018 28.7006 7.31852 27.0803C7.30578 24.8131 7.32522 22.5483 7.35302 20.2813C7.357 18.9928 7.36098 17.7044 7.36508 16.377C8.76524 8.92991 13.2758 7.37467 20.2812 7.35304ZM13 15C11.9103 18.2691 11.8599 20.6948 11.8389 24.1362C11.8293 25.4012 11.8196 26.6662 11.8097 27.9695C11.8049 29.352 11.8006 30.7346 11.7969 32.1172C11.7911 33.5358 11.7854 34.9545 11.7796 36.3731C11.7691 39.3472 11.7632 42.3213 11.7598 45.2954C11.7543 49.1008 11.7302 52.9058 11.7018 56.7111C11.6831 59.6417 11.678 62.5722 11.6764 65.5028C11.6734 66.9054 11.6654 68.308 11.6522 69.7105C11.6351 71.6753 11.6389 73.6402 11.6436 75.605C11.6399 76.7218 11.6363 77.8386 11.6325 78.9892C12.0497 82.4076 12.9074 84.2821 15 87C18.2691 88.0897 20.6948 88.1401 24.1362 88.1611C25.4012 88.1707 26.6662 88.1804 27.9694 88.1903C29.352 88.1951 30.7346 88.1994 32.1172 88.2031C33.5358 88.2089 34.9544 88.2146 36.3731 88.2204C39.3472 88.2309 42.3213 88.2368 45.2954 88.2402C49.1008 88.2457 52.9058 88.2698 56.7111 88.2982C59.6417 88.3169 62.5721 88.322 65.5028 88.3236C66.9054 88.3266 68.308 88.3346 69.7105 88.3478C71.6753 88.3649 73.6402 88.3611 75.605 88.3565C77.2802 88.3619 77.2802 88.3619 78.9892 88.3675C82.4075 87.9503 84.2821 87.0926 87 85C88.0897 81.7309 88.1401 79.3052 88.1611 75.8638C88.1707 74.5988 88.1803 73.3339 88.1902 72.0306C88.1951 70.648 88.1994 69.2654 88.2031 67.8828C88.2089 66.4642 88.2146 65.0456 88.2204 63.6269C88.2309 60.6528 88.2367 57.6787 88.2402 54.7046C88.2457 50.8992 88.2697 47.0942 88.2982 43.2889C88.3169 40.3583 88.322 37.4279 88.3236 34.4972C88.3266 33.0946 88.3346 31.692 88.3477 30.2895C88.3649 28.3248 88.3611 26.3599 88.3564 24.395C88.3601 23.2782 88.3637 22.1614 88.3675 21.0108C87.9502 17.5925 87.0926 15.7179 85 13C81.7309 11.9103 79.3052 11.8599 75.8638 11.8389C74.5988 11.8293 73.3338 11.8197 72.0305 11.8098C70.648 11.8049 69.2654 11.8006 67.8828 11.7969C66.4642 11.7911 65.0455 11.7854 63.6269 11.7796C60.6528 11.7691 57.6787 11.7633 54.7046 11.7598C50.8992 11.7543 47.0942 11.7303 43.2889 11.7018C40.3583 11.6832 37.4278 11.678 34.4972 11.6764C33.0946 11.6734 31.692 11.6654 30.2895 11.6523C28.3247 11.6351 26.3598 11.6389 24.395 11.6436C23.2782 11.6399 22.1614 11.6363 21.0108 11.6325C17.5924 12.0498 15.7179 12.9074 13 15Z" fill="white"/>
<path d="M73 52C77.6158 54.1864 79.7286 56.496 82 61C82.8289 66.5481 82.7241 71.4714 80.3125 76.5625C77.2106 79.832 74.6165 81.7585 70.0977 82.4336C63.9493 82.4415 59.6869 82.4465 55 78C51.1106 72.5586 51.2096 67.4815 52 61C56.3607 51.7941 63.6511 50.8599 73 52ZM58 61C57.1206 63.6346 57.1206 63.6346 57 66C58.129 65.0673 59.253 64.1286 60.375 63.1875C61.0015 62.6654 61.628 62.1434 62.2734 61.6055C64.2221 59.9177 64.2221 59.9177 66 57C62.0081 57 60.8192 58.255 58 61ZM70.5796 60.1934C70.0454 60.738 69.5113 61.2826 68.9609 61.8438C68.0908 62.7235 68.0908 62.7235 67.2031 63.6211C66.5998 64.2411 65.9966 64.8612 65.375 65.5C64.764 66.12 64.153 66.7401 63.5234 67.3789C62.0111 68.9149 60.505 70.4569 59 72C59.33 72.99 59.66 73.98 60 75C64.0738 73.3899 66.7651 70.4618 69.75 67.375C70.2566 66.8594 70.7632 66.3438 71.2852 65.8125C72.528 64.5462 73.7647 63.2737 75 62C74.67 61.01 74.34 60.02 74 59C71.946 58.7856 71.946 58.7856 70.5796 60.1934ZM74.1523 69.75C73.056 70.8638 73.056 70.8638 71.9375 72C70.8373 73.1138 70.8373 73.1138 69.7148 74.25C68.866 75.1163 68.866 75.1163 68 76C68.99 76.33 69.98 76.66 71 77C74.1708 75.0371 75.7416 73.8746 76.8125 70.25C76.8744 69.5075 76.9363 68.765 77 68C75.6969 67.8854 75.6969 67.8854 74.1523 69.75Z" fill="white"/>
<path d="M39 18C43.6158 20.1864 45.7286 22.496 48 27C48.8289 32.5481 48.7241 37.4714 46.3125 42.5625C43.2106 45.832 40.6165 47.7585 36.0977 48.4336C29.9493 48.4415 25.6869 48.4465 21 44C17.1106 38.5586 17.2096 33.4815 18 27C22.3607 17.7941 29.6511 16.8599 39 18ZM24 27C23.1206 29.6346 23.1206 29.6346 23 32C24.129 31.0673 25.253 30.1286 26.375 29.1875C27.0015 28.6654 27.628 28.1434 28.2734 27.6055C30.2221 25.9177 30.2221 25.9177 32 23C28.0081 23 26.8192 24.255 24 27ZM36.5796 26.1934C36.0454 26.738 35.5113 27.2826 34.9609 27.8438C34.0908 28.7235 34.0908 28.7235 33.2031 29.6211C32.5998 30.2411 31.9966 30.8612 31.375 31.5C30.764 32.12 30.153 32.7401 29.5234 33.3789C28.0111 34.9149 26.505 36.4569 25 38C25.33 38.99 25.66 39.98 26 41C30.0738 39.3899 32.7651 36.4618 35.75 33.375C36.2566 32.8594 36.7632 32.3438 37.2852 31.8125C38.528 30.5462 39.7647 29.2737 41 28C40.67 27.01 40.34 26.02 40 25C37.946 24.7856 37.946 24.7856 36.5796 26.1934ZM40.1523 35.75C39.056 36.8638 39.056 36.8638 37.9375 38C36.8373 39.1138 36.8373 39.1138 35.7148 40.25C34.866 41.1163 34.866 41.1163 34 42C34.99 42.33 35.98 42.66 37 43C40.1708 41.0371 41.7416 39.8746 42.8125 36.25C42.8744 35.5075 42.9363 34.765 43 34C41.6969 33.8854 41.6969 33.8854 40.1523 35.75Z" fill="white"/>
<path d="M39 52C43.6158 54.1864 45.7286 56.496 48 61C48.8289 66.5481 48.7241 71.4714 46.3125 76.5625C43.2106 79.832 40.6165 81.7585 36.0977 82.4336C29.9493 82.4415 25.6869 82.4465 21 78C17.1106 72.5586 17.2096 67.4815 18 61C22.3607 51.7941 29.6511 50.8599 39 52ZM24 61C22.3991 64.2017 22.5008 67.5258 23 71C24.7936 73.81 26.0188 75.5094 29 77C34.8135 77.5337 34.8135 77.5337 39.9375 75.125C43.097 71.8698 43.3342 69.5759 43.293 65.0391C42.8375 61.8687 41.2468 60.1808 39 58C33.2813 55.1406 28.2223 56.6498 24 61Z" fill="white"/>
<path d="M73 18C77.6158 20.1864 79.7286 22.496 82 27C82.8289 32.5481 82.7241 37.4714 80.3125 42.5625C77.2106 45.832 74.6165 47.7585 70.0977 48.4336C63.9493 48.4415 59.6869 48.4465 55 44C51.1106 38.5586 51.2096 33.4815 52 27C56.3607 17.7941 63.6511 16.8599 73 18ZM58 27C56.3991 30.2017 56.5008 33.5258 57 37C58.7936 39.81 60.0188 41.5094 63 43C68.8135 43.5337 68.8135 43.5337 73.9375 41.125C77.097 37.8698 77.3342 35.5759 77.293 31.0391C76.8375 27.8687 75.2468 26.1808 73 24C67.2813 21.1406 62.2223 22.6498 58 27Z" fill="white"/>
</svg>
