<svg width="104" height="102" viewBox="0 0 104 102" fill="none" xmlns="http://www.w3.org/2000/svg">
<path d="M45.5 3.1875C55.8778 2.56179 64.1151 3.95415 72.4617 10.5679C77.102 14.9233 81.1348 19.6633 81.3516 26.1475C81.318 26.9857 81.2845 27.8239 81.25 28.6875C82.2303 28.6628 82.2303 28.6628 83.2305 28.6377C85.3125 28.6875 85.3125 28.6875 86.125 29.4844C86.1837 30.9609 86.1931 32.4395 86.1758 33.917C86.1684 34.7234 86.1611 35.5297 86.1536 36.3605C86.1441 36.9841 86.1347 37.6076 86.125 38.25C86.7408 38.3414 87.3567 38.4328 87.9912 38.527C91.2191 39.291 92.6468 40.8236 95.0625 43.0313C96.0616 44.9911 96.0051 46.3292 96.0446 48.5212C96.0603 49.3327 96.0759 50.1442 96.0921 50.9803C96.139 54.7011 96.1791 58.4218 96.2041 62.1428C96.2216 64.1037 96.2493 66.0646 96.2874 68.0252C96.3419 70.8535 96.3642 73.6806 96.3796 76.5093C96.4023 77.3819 96.4249 78.2545 96.4482 79.1536C96.4344 84.1869 95.888 87.056 92.2074 90.6784C89.2501 93.0352 86.0509 92.5792 82.419 92.6038C81.6988 92.6116 80.9786 92.6194 80.2366 92.6275C77.846 92.6514 75.4554 92.6684 73.0647 92.6834C72.2486 92.6886 71.4325 92.6939 70.5917 92.6993C66.2705 92.7253 61.9494 92.7447 57.6282 92.7603C54.0524 92.7744 50.4771 92.8022 46.9014 92.842C42.5849 92.8899 38.2688 92.9144 33.9519 92.9222C32.3079 92.929 30.6639 92.944 29.0201 92.9674C26.715 92.9984 24.4119 92.9992 22.1067 92.9929C21.0928 93.0168 21.0928 93.0168 20.0583 93.0412C15.5528 92.9864 13.2637 91.8818 9.99796 88.8383C8.02104 86.6347 8.00991 85.0139 7.96829 82.1536C7.95524 81.3396 7.94219 80.5255 7.92874 79.6868C7.89264 75.9582 7.85925 72.2296 7.84054 68.5009C7.82709 66.5346 7.80493 64.5683 7.77389 62.6022C7.72938 59.768 7.71162 56.9348 7.69971 54.1003C7.68129 53.2236 7.66287 52.3469 7.64389 51.4436C7.66304 44.6294 7.66304 44.6294 10.0749 41.7107C12.7935 39.3082 14.2057 38.25 17.875 38.25C17.8656 37.6265 17.8561 37.003 17.8464 36.3605C17.8391 35.5542 17.8318 34.7478 17.8242 33.917C17.8148 33.1127 17.8054 32.3084 17.7957 31.4797C17.875 29.4844 17.875 29.4844 18.6875 28.6875C20.0413 28.6551 21.3963 28.6535 22.75 28.6875C22.9008 28.0958 23.0516 27.5041 23.207 26.8945C25.5923 22.4191 30.7167 21.2446 35.293 19.5732C41.643 17.3101 41.643 17.3101 47.125 13.5469C48.3295 11.1817 48.3295 11.1817 47.9375 8.76563C46.4645 6.85476 46.4645 6.85476 44.6875 5.57813C44.9556 4.78922 45.2237 4.00031 45.5 3.1875ZM52.8125 7.17188C52.7355 7.95154 52.7355 7.95154 52.657 8.74695C52.1351 12.3999 51.6558 15.228 48.8008 17.7803C43.4404 21.6495 37.0589 23.9421 30.6941 25.6805C28.9479 26.2738 28.9479 26.2738 27.625 28.6875C43.9806 28.6875 60.3362 28.6875 77.1875 28.6875C76.1561 20.5946 73.1087 16.7519 66.8567 11.5889C62.6094 8.77627 57.922 7.17188 52.8125 7.17188ZM21.125 31.875C21.125 33.9788 21.125 36.0825 21.125 38.25C41.5025 38.25 61.88 38.25 82.875 38.25C82.875 36.1463 82.875 34.0425 82.875 31.875C62.4975 31.875 42.12 31.875 21.125 31.875ZM13.8125 43.8281C11.1746 48.0394 11.0145 51.8727 11.0513 56.7275C11.0489 57.4139 11.0466 58.1003 11.0442 58.8075C11.0426 60.2514 11.047 61.6953 11.0572 63.1391C11.0703 65.3374 11.0573 67.5345 11.0417 69.7328C11.0434 71.1418 11.0465 72.5509 11.0513 73.96C11.0463 74.6109 11.0414 75.2618 11.0363 75.9325C11.0885 80.1453 11.5391 83.23 13.8125 86.8594C17.9186 89.0169 21.3646 89.5983 26.0222 89.5593C26.6479 89.5635 27.2736 89.5677 27.9182 89.572C29.9704 89.5825 32.022 89.5756 34.0742 89.5675C35.5098 89.5691 36.9453 89.5714 38.3809 89.5744C41.3832 89.5779 44.3853 89.5729 47.3876 89.5617C51.2261 89.548 55.0642 89.5559 58.9027 89.5702C61.8652 89.5789 64.8275 89.5761 67.79 89.5699C69.2049 89.5683 70.6199 89.5703 72.0348 89.5758C74.016 89.5819 75.9966 89.5726 77.9778 89.5593C78.8454 89.5666 78.8454 89.5666 79.7306 89.574C83.8419 89.5233 86.6162 88.7359 90.1875 86.8594C92.8253 82.6481 92.9855 78.8148 92.9487 73.96C92.9511 73.2736 92.9534 72.5872 92.9558 71.88C92.9574 70.4361 92.953 68.9922 92.9428 67.5484C92.9297 65.3501 92.9427 63.153 92.9583 60.9547C92.9566 59.5457 92.9535 58.1366 92.9487 56.7275C92.9537 56.0766 92.9586 55.4257 92.9637 54.755C92.9115 50.5422 92.4609 47.4575 90.1875 43.8281C86.0814 41.6706 82.6354 41.0892 77.9778 41.1282C77.3521 41.124 76.7264 41.1198 76.0818 41.1155C74.0296 41.105 71.978 41.1119 69.9258 41.12C68.4902 41.1184 67.0547 41.1161 65.6191 41.1131C62.6168 41.1096 59.6147 41.1146 56.6124 41.1258C52.7739 41.1395 48.9358 41.1316 45.0973 41.1173C42.1348 41.1086 39.1724 41.1114 36.21 41.1176C34.7951 41.1192 33.3801 41.1173 31.9652 41.1117C29.984 41.1056 28.0034 41.1149 26.0222 41.1282C25.1546 41.1209 25.1546 41.1209 24.2694 41.1135C20.1581 41.1642 17.3838 41.9516 13.8125 43.8281Z" fill="white"/>
<path d="M55.25 51C58.8231 52.9808 60.19 55.3103 61.75 58.9688C62.0237 61.1475 62.1759 63.0731 62.1563 65.2442C62.1528 66.0872 62.1528 66.0872 62.1493 66.9472C62.0043 71.5226 61.0118 74.8426 57.6875 78.0938C54.8079 79.9766 53.1837 80.1588 49.8005 80.1046C46.9119 79.4579 45.6861 77.8177 43.9512 75.5631C41.9772 72.334 42.0738 69.1371 42.0469 65.4932C42.0301 64.9359 42.0134 64.3786 41.9961 63.8045C41.96 59.0769 43.3377 56.1223 46.0078 52.2949C48.9743 50.3042 51.7687 50.4014 55.25 51ZM49.5625 54.9844C45.7149 58.9939 45.8438 62.9288 45.9824 68.2885C46.4073 71.6778 47.2065 73.248 49.5625 75.7031C52.33 75.6862 52.33 75.6862 55.25 74.9063C58.2664 71.3752 58.0525 67.247 57.9128 62.838C57.6232 59.9127 57.1932 58.0559 55.25 55.7813C52.33 55.0013 52.33 55.0013 49.5625 54.9844Z" fill="white"/>
<path d="M87.75 62.1562C88.8225 62.1562 89.895 62.1562 91 62.1562C91 64.26 91 66.3637 91 68.5312C89.9275 68.5312 88.855 68.5312 87.75 68.5312C87.75 66.4275 87.75 64.3238 87.75 62.1562Z" fill="white"/>
<path d="M79.625 62.1562C80.6975 62.1562 81.77 62.1562 82.875 62.1562C82.875 64.26 82.875 66.3637 82.875 68.5312C81.8025 68.5312 80.73 68.5312 79.625 68.5312C79.625 66.4275 79.625 64.3238 79.625 62.1562Z" fill="white"/>
<path d="M71.5 62.1562C72.5725 62.1562 73.645 62.1562 74.75 62.1562C74.75 64.26 74.75 66.3637 74.75 68.5312C73.6775 68.5312 72.605 68.5312 71.5 68.5312C71.5 66.4275 71.5 64.3238 71.5 62.1562Z" fill="white"/>
<path d="M63.375 62.1562C64.4475 62.1562 65.52 62.1562 66.625 62.1562C66.625 64.26 66.625 66.3637 66.625 68.5312C65.5525 68.5312 64.48 68.5312 63.375 68.5312C63.375 66.4275 63.375 64.3238 63.375 62.1562Z" fill="white"/>
<path d="M37.375 62.1562C38.4475 62.1562 39.52 62.1562 40.625 62.1562C40.625 64.26 40.625 66.3637 40.625 68.5312C39.5525 68.5312 38.48 68.5312 37.375 68.5312C37.375 66.4275 37.375 64.3238 37.375 62.1562Z" fill="white"/>
<path d="M29.25 62.1562C30.3225 62.1562 31.395 62.1562 32.5 62.1562C32.5 64.26 32.5 66.3637 32.5 68.5312C31.4275 68.5312 30.355 68.5312 29.25 68.5312C29.25 66.4275 29.25 64.3238 29.25 62.1562Z" fill="white"/>
<path d="M21.125 62.1562C22.1975 62.1562 23.27 62.1562 24.375 62.1562C24.375 64.26 24.375 66.3637 24.375 68.5312C23.3025 68.5312 22.23 68.5312 21.125 68.5312C21.125 66.4275 21.125 64.3238 21.125 62.1562Z" fill="white"/>
<path d="M13 62.1562C14.0725 62.1562 15.145 62.1562 16.25 62.1562C16.25 64.26 16.25 66.3637 16.25 68.5312C15.1775 68.5312 14.105 68.5312 13 68.5312C13 66.4275 13 64.3238 13 62.1562Z" fill="white"/>
</svg>
