<svg width="96" height="95" viewBox="0 0 96 95" fill="none" xmlns="http://www.w3.org/2000/svg">
<g clip-path="url(#clip0_35_63)">
<path d="M81.15 8.83204C88.6328 15.0456 94.1557 23.517 95.4 33.25C96.2734 43.9836 94.972 54.4651 87.8695 63.0999C80.1393 71.9335 71.1469 77.0493 59.4 78.375C59.3881 78.8185 59.3762 79.2619 59.364 79.7188C59.3069 81.7203 59.2411 83.7214 59.175 85.7227C59.1471 86.7697 59.1471 86.7697 59.1187 87.8379C59.0955 88.5038 59.0723 89.1697 59.0484 89.8557C59.0296 90.4714 59.0107 91.087 58.9913 91.7213C58.8 93.2188 58.8 93.2188 57.6 94.4063C56.0625 94.5176 56.0625 94.5176 54.6 94.4063C53.535 93.3524 53.859 91.8069 53.8101 90.3776C53.785 89.683 53.7599 88.9884 53.734 88.2728C53.7104 87.5415 53.6868 86.8101 53.6625 86.0566C53.6366 85.323 53.6107 84.5894 53.584 83.8336C53.5201 82.0141 53.4589 80.1946 53.4 78.375C52.3709 78.1925 52.3709 78.1925 51.3211 78.0062C50.4265 77.8448 49.532 77.6832 48.6375 77.5215C47.9582 77.4015 47.9582 77.4015 47.2652 77.2791C43.868 76.661 43.868 76.661 43.2 76C43.125 74.2188 43.125 74.2188 43.2 72.4375C43.8 71.8438 43.8 71.8438 45.75 71.7695C48 71.8438 48 71.8438 49.3383 72.136C58.9749 73.8845 68.0396 71.7008 76.2 66.5C83.8314 61.031 87.968 53.1616 89.85 44.1602C89.8995 43.4989 89.949 42.8376 90 42.1563C90.0379 41.7483 90.0758 41.3404 90.1148 40.9201C90.5723 32.1147 87.1141 23.6119 81.375 17.0332C74.7273 10.1039 66.1977 6.07903 56.4375 5.71485C50.2383 5.95348 44.7461 7.5334 39.3726 10.5646C37.6724 11.3394 36.6474 11.5219 34.8 11.2813C33.6 10.0938 33.6 10.0938 33.525 8.72071C34.8337 5.62691 37.951 4.60583 40.9266 3.33058C54.6764 -2.08715 69.3829 -0.0983703 81.15 8.83204Z" fill="white"/>
<path d="M11.7469 38.4523C12.205 38.4475 12.6632 38.4427 13.1352 38.4378C14.1077 38.4295 15.0802 38.4232 16.0526 38.4185C17.5357 38.4083 19.018 38.3823 20.5008 38.356C21.4453 38.35 22.3899 38.345 23.3344 38.3409C23.7764 38.3306 24.2184 38.3202 24.6737 38.3094C26.8789 38.3186 28.089 38.5223 29.9558 39.7237C31.9019 41.6711 32.5766 43.2119 32.625 45.9414C32.5666 48.6389 31.7916 50.1731 30 52.25C27.8468 53.6705 26.2466 53.6327 23.7563 53.6625C23.3236 53.6726 22.8909 53.6827 22.4452 53.6931C21.0635 53.7246 19.6818 53.7485 18.3 53.7715C16.9182 53.7976 15.5365 53.8254 14.1549 53.8563C13.2955 53.8752 12.4361 53.8912 11.5766 53.9039C9.76099 53.9412 8.33639 54.0522 6.60001 54.625C5.82021 56.1684 5.90375 57.3258 5.87682 59.0541C5.86485 59.7316 5.85288 60.409 5.84056 61.1071C5.82551 62.2083 5.82551 62.2083 5.81017 63.3318C5.7977 64.0813 5.78523 64.8308 5.77238 65.6031C5.73974 67.5963 5.70961 69.5895 5.68068 71.5827C5.65054 73.6165 5.61717 75.6502 5.584 77.6838C5.51915 81.6746 5.45973 85.6654 5.40001 89.6563C14.706 89.6563 24.012 89.6563 33.6 89.6563C33.5931 87.3058 33.5861 84.9553 33.5789 82.5336C33.5742 80.2679 33.5706 78.0023 33.5671 75.7366C33.564 74.1568 33.5599 72.5769 33.5547 70.9971C33.5475 68.7319 33.5441 66.4667 33.5414 64.2015C33.5383 63.4903 33.5352 62.779 33.532 62.0462C33.532 61.3925 33.5319 60.7387 33.5319 60.0652C33.5306 59.4863 33.5292 58.9075 33.5279 58.3112C33.6 57 33.6 57 34.2 56.4063C36 56.332 36 56.332 37.8 56.4063C38.8675 57.4626 38.4766 59.0087 38.4776 60.4373C38.4795 61.1723 38.4814 61.9074 38.4834 62.6647C38.4823 63.4731 38.4811 64.2815 38.4797 65.0899C38.4801 65.9129 38.4807 66.736 38.4814 67.5591C38.4823 69.2861 38.481 71.0131 38.4782 72.7402C38.4748 74.9585 38.4768 77.1769 38.4804 79.3952C38.4825 81.0954 38.4819 82.7956 38.4803 84.4958C38.4799 85.314 38.4804 86.1322 38.4818 86.9504C38.4833 88.092 38.4806 89.2336 38.4776 90.3753C38.4772 91.0261 38.4767 91.677 38.4762 92.3476C38.4 93.8125 38.4 93.8125 37.8 94.4063C36.6618 94.4651 35.5214 94.4823 34.3817 94.4831C33.6509 94.485 32.9201 94.4868 32.1672 94.4888C31.3635 94.4877 30.5599 94.4865 29.7563 94.4851C28.938 94.4855 28.1197 94.4861 27.3014 94.4868C25.5844 94.4877 23.8675 94.4864 22.1505 94.4837C19.9451 94.4803 17.7397 94.4822 15.5343 94.4858C13.844 94.4879 12.1537 94.4873 10.4634 94.4857C9.65005 94.4853 8.83667 94.4858 8.02328 94.4872C6.88831 94.4887 5.75334 94.486 4.61837 94.4831C3.64779 94.4824 3.64779 94.4824 2.65761 94.4817C1.20001 94.4063 1.20001 94.4063 0.600012 93.8125C0.534037 92.5898 0.510535 91.3648 0.503333 90.1404C0.500354 89.7571 0.497375 89.3738 0.494305 88.9788C0.48551 87.7048 0.481447 86.4308 0.478137 85.1567C0.474687 84.2728 0.471232 83.3889 0.467773 82.5049C0.46146 80.6481 0.45796 78.7913 0.455872 76.9344C0.452587 74.5578 0.438186 72.1814 0.421088 69.8048C0.409898 67.9772 0.406788 66.1496 0.40587 64.3219C0.404056 63.446 0.399245 62.5702 0.391359 61.6943C0.381095 60.4663 0.382257 59.2387 0.386145 58.0107C0.383958 57.3123 0.38177 56.614 0.379517 55.8945C0.720104 53.0164 1.81417 51.5511 4.02247 49.7095C6.29929 48.5328 8.13287 48.3491 10.6406 48.3674C11.0722 48.3604 11.5037 48.3534 11.9483 48.3462C13.3157 48.3254 14.6825 48.3198 16.05 48.3164C17.4259 48.3067 18.8016 48.2937 20.1774 48.2739C21.0307 48.2622 21.8842 48.2567 22.7376 48.2579C25.1361 48.2964 25.1361 48.2964 27 46.9063C26.7568 45.2542 26.7568 45.2542 25.8 43.9375C24.4836 43.8578 23.1647 43.8166 21.8461 43.7914C21.0332 43.7718 20.2203 43.7521 19.4074 43.7322C18.121 43.7041 16.8346 43.6777 15.548 43.6544C14.3097 43.6309 13.0717 43.6002 11.8336 43.5687C11.0896 43.5539 10.3456 43.539 9.57907 43.5237C7.80001 43.3438 7.80001 43.3438 6.60001 42.1563C6.48751 40.6348 6.48751 40.6348 6.60001 39.1875C7.79027 38.0096 10.1175 38.4683 11.7469 38.4523Z" fill="white"/>
<path d="M8.8292 0.461548C12.2668 0.692144 14.9539 2.53399 17.925 4.15625C18.8705 4.64877 18.8705 4.64877 19.8352 5.15125C25.3791 8.1381 29.8798 11.3158 32.0186 17.3973C32.7109 20.3062 32.6983 23.1513 32.625 26.125C32.6242 26.7396 32.6235 27.3542 32.6227 27.9874C32.5691 32.4889 32.5691 32.4889 31.2 33.8438C28.4667 33.5139 28.4667 33.5139 27.6 32.6562C27.4769 30.3617 27.3924 28.0708 27.3422 25.7736C27.1614 20.992 26.2002 17.1982 22.8 13.6562C21.0141 12.4824 19.1453 11.491 17.25 10.502C16.7457 10.2322 16.2414 9.96236 15.7219 9.68439C14.4843 9.02332 13.2438 8.36838 12 7.71875C11.9881 8.46796 11.9762 9.21717 11.964 9.98909C11.9184 12.7622 11.8652 15.5351 11.8096 18.308C11.7866 19.5093 11.7657 20.7108 11.7469 21.9122C11.7196 23.6367 11.6847 25.3609 11.6484 27.0852C11.638 27.8942 11.638 27.8942 11.6274 28.7196C11.6155 29.2188 11.6036 29.7179 11.5913 30.2323C11.5833 30.6726 11.5753 31.113 11.5671 31.5667C11.4 32.6562 11.4 32.6562 10.2 33.8438C7.46667 33.5139 7.46667 33.5139 6.6 32.6562C6.54079 31.6754 6.52321 30.6921 6.52236 29.7095C6.52047 29.0815 6.51858 28.4534 6.51663 27.8063C6.51845 26.7812 6.51845 26.7812 6.52031 25.7354C6.51974 25.0391 6.51916 24.3429 6.51857 23.6256C6.51816 22.1501 6.51928 20.6746 6.52178 19.1992C6.52499 16.9317 6.52181 14.6643 6.51797 12.3969C6.51837 10.9674 6.51913 9.53788 6.52031 8.1084C6.5191 7.42498 6.51788 6.74157 6.51663 6.03745C6.51852 5.40938 6.52041 4.78132 6.52236 4.13422C6.52284 3.57829 6.52332 3.02236 6.52381 2.44958C6.63908 0.54019 6.88011 0.619707 8.8292 0.461548Z" fill="white"/>
<path d="M75 21.375C75.396 22.3547 75.792 23.3344 76.2 24.3438C71.9782 29.2238 67.4468 33.7732 62.8758 38.3308C61.9032 39.3031 60.9339 40.2787 59.9678 41.2572C58.5654 42.6774 57.1535 44.0877 55.739 45.4961C55.3084 45.9358 54.8777 46.3754 54.4339 46.8284C54.0273 47.2291 53.6206 47.6299 53.2016 48.0427C52.671 48.575 52.671 48.575 52.1297 49.118C50.6538 50.107 49.7476 50.1045 48 49.875C47.604 49.4831 47.208 49.0913 46.8 48.6875C46.9509 46.1333 47.8952 44.9274 49.6787 43.1471C50.1615 42.6599 50.6443 42.1727 51.1417 41.6708C51.6673 41.1537 52.1928 40.6365 52.7344 40.1037C53.2724 39.5675 53.8105 39.0314 54.3648 38.479C55.5039 37.3476 56.6452 36.219 57.7907 35.094C59.2574 33.6529 60.7114 32.2 62.1624 30.7433C63.5501 29.3538 64.949 27.9754 66.3469 26.5958C66.8676 26.0727 67.3883 25.5495 67.9248 25.0105C68.4152 24.5327 68.9055 24.0549 69.4107 23.5626C70.0535 22.9273 70.0535 22.9273 70.7093 22.2792C72.2622 21.1913 73.1375 21.1847 75 21.375Z" fill="white"/>
<path d="M66.5174 13.6908C67.8 14.25 67.8 14.25 68.4 14.8438C68.6688 16.1117 68.6688 16.1117 68.4 17.8125C67.3328 19.3251 66.0254 20.5781 64.6992 21.869C64.3201 22.247 63.941 22.625 63.5504 23.0144C62.7475 23.811 61.9409 24.6038 61.1307 25.3931C59.8919 26.6031 58.6699 27.8281 57.4488 29.0555C56.6666 29.8276 55.8834 30.5988 55.0992 31.369C54.7341 31.7364 54.369 32.1037 53.9928 32.4821C51.4244 34.9547 51.4244 34.9547 49.3188 35.3344C48 35.0313 48 35.0313 46.8 33.8438C46.7792 31.1275 48.2438 29.7397 50.0439 27.8982C50.412 27.535 50.7801 27.1718 51.1594 26.7976C51.5376 26.4182 51.9159 26.0388 52.3056 25.6479C53.1055 24.8495 53.9086 24.0542 54.7145 23.2618C55.9479 22.0451 57.1643 20.8134 58.3805 19.5798C59.16 18.8058 59.9404 18.0326 60.7219 17.2605C61.0851 16.8901 61.4483 16.5197 61.8226 16.1381C64.3943 13.6481 64.3943 13.6481 66.5174 13.6908Z" fill="white"/>
</g>
<defs>
<clipPath id="clip0_35_63">
<rect width="96" height="95" fill="white"/>
</clipPath>
</defs>
</svg>
